<?xml version="1.0" encoding="UTF-8" standalone="no"?>
<!-- Created with Inkscape (http://www.inkscape.org/) -->

<svg
   xmlns:dc="http://purl.org/dc/elements/1.1/"
   xmlns:cc="http://creativecommons.org/ns#"
   xmlns:rdf="http://www.w3.org/1999/02/22-rdf-syntax-ns#"
   xmlns:svg="http://www.w3.org/2000/svg"
   xmlns="http://www.w3.org/2000/svg"
   xmlns:sodipodi="http://sodipodi.sourceforge.net/DTD/sodipodi-0.dtd"
   xmlns:inkscape="http://www.inkscape.org/namespaces/inkscape"
   sodipodi:docname="hack-granada-2Trayecto.svg"
   inkscape:version="0.91 r13725"
   version="1.1"
   id="svg2"
   viewBox="0 0 1052.3622 744.09448"
   height="210mm"
   width="297mm">
  <defs
     id="defs4" />
  <sodipodi:namedview
     inkscape:guide-bbox="true"
     showguides="true"
     inkscape:window-maximized="1"
     inkscape:window-y="27"
     inkscape:window-x="0"
     inkscape:window-height="704"
     inkscape:window-width="1366"
     inkscape:snap-others="false"
     showgrid="false"
     inkscape:current-layer="layer1"
     inkscape:document-units="px"
     inkscape:cy="410.06684"
     inkscape:cx="527.60113"
     inkscape:zoom="0.70421164"
     inkscape:pageshadow="2"
     inkscape:pageopacity="0.0"
     borderopacity="1.0"
     bordercolor="#666666"
     pagecolor="#ffffff"
     id="base"
     inkscape:snap-bbox="true"
     inkscape:bbox-paths="true"
     inkscape:snap-bbox-midpoints="true"
     inkscape:bbox-nodes="true"
     inkscape:snap-bbox-edge-midpoints="true"
     inkscape:snap-object-midpoints="true"
     inkscape:snap-nodes="false"
     inkscape:snap-global="false" />
  <metadata
     id="metadata7">
    <rdf:RDF>
      <cc:Work
         rdf:about="">
        <dc:format>image/svg+xml</dc:format>
        <dc:type
           rdf:resource="http://purl.org/dc/dcmitype/StillImage" />
        <dc:title></dc:title>
      </cc:Work>
    </rdf:RDF>
  </metadata>
  <g
     inkscape:label="Capa 1"
     inkscape:groupmode="layer"
     id="layer1"
     transform="translate(0,-308.26772)">
    <path
       inkscape:connector-curvature="0"
       style="fill:#000000"
       d="m 693.60028,548.35779 150,0 c 41.55,0 75,33.45 75,75 l 0,150 c 0,41.55 -33.45,75 -75,75 l -150,0 c -41.55,0 -75,-33.45 -75,-75 l 0,-150 c 0,-41.55 33.45,-75 75,-75 z"
       id="rect6076" />
    <path
       inkscape:connector-curvature="0"
       style="fill:#000000;fill-opacity:1"
       d="m 756.46747,846.89587 25,0 0,50 -25,0 z"
       id="rect4197" />
    <path
       inkscape:connector-curvature="0"
       style="fill:#000000;fill-opacity:1"
       d="m 768.60028,636.93909 -21.65064,-49.10254 -53.34936,5.80127 31.69873,-43.30127 -31.69873,-43.30127 53.34936,5.80127 21.65064,-49.10254 21.65064,49.10254 53.34936,-5.80127 -31.69873,43.30127 31.69873,43.30127 -53.34936,-5.80127 z"
       id="path6078" />
    <path
       inkscape:connector-curvature="0"
       style="fill:#ffffff;fill-opacity:1"
       d="m 768.60028,626.98904 -19.16313,-43.46098 -47.21988,5.13474 28.05676,-38.32625 -28.05676,-38.32625 47.21988,5.13474 19.16313,-43.46099 19.16313,43.46099 47.21988,-5.13474 -28.05676,38.32625 28.05676,38.32624 -47.21988,-5.13473 z"
       id="path4416" />
    <path
       inkscape:connector-curvature="0"
       style="fill:#ffffff;fill-opacity:1"
       d="m 761.46747,827.0683 15,0 0,64.82757 -15,0 z"
       id="rect4197-3" />
    <path
       inkscape:connector-curvature="0"
       style="fill:#ffffff"
       d="m 696.10028,553.35779 145,0 c 40.165,0 72.5,32.335 72.5,72.5 l 0,145 c 0,40.165 -32.335,72.5 -72.5,72.5 l -145,0 c -40.165,0 -72.5,-32.335 -72.5,-72.5 l 0,-145 c 0,-40.165 32.335,-72.5 72.5,-72.5 z"
       id="rect3336" />
    <path
       inkscape:connector-curvature="0"
       style="fill:#000000"
       d="m 692.58629,671.84123 17.67767,17.67767 c 4.89672,4.89672 4.89675,12.78099 3e-5,17.6777 l -17.67767,17.67767 c -4.89671,4.89672 -12.78098,4.89669 -17.67769,-3e-5 l -17.67767,-17.67767 c -4.89672,-4.89671 -4.89672,-12.78095 0,-17.67767 l 17.67767,-17.67767 c 4.89671,-4.89671 12.78095,-4.89671 17.67766,0 z"
       id="rect4138" />
    <path
       inkscape:connector-curvature="0"
       style="fill:#000000;fill-opacity:1"
       d="m 690.81853,677.14453 14.14213,14.14214 c 3.91738,3.91737 3.91738,10.22476 0,14.14214 l -14.14213,14.14213 c -3.91737,3.91737 -10.22477,3.91737 -14.14214,0 l -14.14213,-14.14213 c -3.91737,-3.91738 -3.91737,-10.22477 0,-14.14214 l 14.14213,-14.14214 c 3.91737,-3.91737 10.22477,-3.91737 14.14214,0 z"
       id="rect4140" />
    <path
       inkscape:connector-curvature="0"
       style="fill:#000000"
       d="m 735.01273,714.26767 17.67767,17.67767 c 4.89671,4.89671 4.89671,12.78095 0,17.67767 l -17.67767,17.67767 c -4.89671,4.89671 -12.78096,4.89671 -17.67767,0 l -17.67767,-17.67767 c -4.89671,-4.89672 -4.89671,-12.78096 0,-17.67767 l 17.67767,-17.67767 c 4.89671,-4.89671 12.78096,-4.89671 17.67767,0 z"
       id="rect4138-8" />
    <path
       inkscape:connector-curvature="0"
       style="fill:#000000;fill-opacity:1"
       d="m 733.24496,719.57097 14.14214,14.14214 c 3.91737,3.91737 3.91737,10.22476 0,14.14213 l -14.14214,14.14214 c -3.91737,3.91737 -10.22476,3.91737 -14.14213,0 l -14.14214,-14.14214 c -3.91737,-3.91737 -3.91737,-10.22476 0,-14.14213 l 14.14214,-14.14214 c 3.91737,-3.91737 10.22476,-3.91737 14.14213,0 z"
       id="rect4140-3" />
    <path
       inkscape:connector-curvature="0"
       style="fill:#000000"
       d="m 777.43914,756.69408 17.67767,17.67767 c 4.89671,4.89671 4.89671,12.78095 0,17.67767 l -17.67767,17.67766 c -4.89672,4.89672 -12.78096,4.89672 -17.67767,0 L 742.0838,792.04942 c -4.89672,-4.89672 -4.89672,-12.78096 0,-17.67767 l 17.67767,-17.67767 c 4.89671,-4.89672 12.78095,-4.89672 17.67767,0 z"
       id="rect4138-8-4" />
    <path
       inkscape:connector-curvature="0"
       style="fill:#000000;fill-opacity:1"
       d="m 775.67137,761.99738 14.14214,14.14213 c 3.91737,3.91737 3.91737,10.22477 0,14.14214 l -14.14214,14.14213 c -3.91737,3.91737 -10.22476,3.91737 -14.14214,0 L 747.3871,790.28165 c -3.91737,-3.91737 -3.91737,-10.22477 0,-14.14214 l 14.14213,-14.14213 c 3.91738,-3.91738 10.22477,-3.91738 14.14214,0 z"
       id="rect4140-3-4" />
    <path
       inkscape:connector-curvature="0"
       style="fill:#000000"
       d="m 735.01271,629.41482 17.67767,17.67767 c 4.89671,4.89671 4.89674,12.78098 3e-5,17.6777 l -17.67767,17.67767 c -4.89672,4.89671 -12.78099,4.89668 -17.6777,-3e-5 l -17.67767,-17.67767 c -4.89671,-4.89671 -4.89671,-12.78096 0,-17.67767 l 17.67767,-17.67767 c 4.89671,-4.89671 12.78095,-4.89671 17.67767,0 z"
       id="rect4138-0" />
    <path
       inkscape:connector-curvature="0"
       style="fill:#ffffff"
       d="m 733.24494,634.71812 14.14214,14.14214 c 3.91737,3.91737 3.91737,10.22476 0,14.14213 l -14.14214,14.14214 c -3.91737,3.91737 -10.22476,3.91737 -14.14213,0 l -14.14214,-14.14214 c -3.91737,-3.91737 -3.91737,-10.22476 0,-14.14213 l 14.14214,-14.14214 c 3.91737,-3.91737 10.22476,-3.91737 14.14213,0 z"
       id="rect4140-7" />
    <path
       inkscape:connector-curvature="0"
       style="fill:#000000"
       d="m 777.43914,671.84126 17.67767,17.67767 c 4.89672,4.89671 4.89672,12.78095 0,17.67766 l -17.67767,17.67767 c -4.89671,4.89672 -12.78095,4.89672 -17.67767,0 L 742.0838,707.19659 c -4.89671,-4.89671 -4.89671,-12.78095 0,-17.67766 l 17.67767,-17.67767 c 4.89672,-4.89672 12.78096,-4.89672 17.67767,0 z"
       id="rect4138-8-9" />
    <path
       inkscape:connector-curvature="0"
       style="fill:#ffffff"
       d="m 775.67138,677.14456 14.14213,14.14213 c 3.91737,3.91737 3.91737,10.22477 0,14.14214 l -14.14213,14.14213 c -3.91737,3.91737 -10.22477,3.91737 -14.14214,0 l -14.14213,-14.14213 c -3.91738,-3.91737 -3.91738,-10.22477 0,-14.14214 l 14.14213,-14.14213 c 3.91737,-3.91738 10.22477,-3.91738 14.14214,0 z"
       id="rect4140-3-3" />
    <path
       inkscape:connector-curvature="0"
       style="fill:#000000"
       d="m 819.86555,714.26766 17.67767,17.67767 c 4.89671,4.89672 4.89671,12.78096 0,17.67767 l -17.67767,17.67767 c -4.89671,4.89672 -12.78095,4.89672 -17.67767,0 L 784.51021,749.623 c -4.89671,-4.89671 -4.89671,-12.78095 0,-17.67767 l 17.67767,-17.67767 c 4.89672,-4.89671 12.78096,-4.89671 17.67767,0 z"
       id="rect4138-8-4-6" />
    <path
       inkscape:connector-curvature="0"
       style="fill:#000000;fill-opacity:1"
       d="m 818.09778,719.57096 14.14214,14.14214 c 3.91737,3.91737 3.91737,10.22476 0,14.14213 l -14.14214,14.14214 c -3.91737,3.91737 -10.22476,3.91737 -14.14213,0 l -14.14214,-14.14214 c -3.91737,-3.91737 -3.91737,-10.22476 0,-14.14213 l 14.14214,-14.14214 c 3.91737,-3.91737 10.22476,-3.91737 14.14213,0 z"
       id="rect4140-3-4-9" />
    <path
       inkscape:connector-curvature="0"
       style="fill:#000000"
       d="m 777.43909,586.98844 17.67767,17.67767 c 4.89672,4.89671 4.89674,12.78098 3e-5,17.67769 l -17.67767,17.67768 c -4.89672,4.89671 -12.78099,4.89668 -17.6777,-3e-5 l -17.67767,-17.67767 c -4.89671,-4.89671 -4.89671,-12.78096 0,-17.67767 l 17.67767,-17.67767 c 4.89672,-4.89672 12.78096,-4.89672 17.67767,0 z"
       id="rect4138-7" />
    <path
       inkscape:connector-curvature="0"
       style="fill:#ffffff"
       d="m 775.67133,592.29174 14.14213,14.14213 c 3.91737,3.91738 3.91737,10.22477 0,14.14214 l -14.14214,14.14214 c -3.91737,3.91737 -10.22476,3.91737 -14.14213,0 l -14.14214,-14.14214 c -3.91737,-3.91737 -3.91737,-10.22476 0,-14.14213 l 14.14214,-14.14214 c 3.91737,-3.91737 10.22476,-3.91737 14.14214,0 z"
       id="rect4140-8" />
    <path
       inkscape:connector-curvature="0"
       style="fill:#000000"
       d="m 819.86553,629.41487 17.67767,17.67767 c 4.89671,4.89672 4.89671,12.78096 0,17.67767 l -17.67768,17.67767 c -4.89671,4.89672 -12.78095,4.89672 -17.67767,0 l -17.67767,-17.67767 c -4.89671,-4.89671 -4.89671,-12.78095 0,-17.67766 l 17.67768,-17.67768 c 4.89671,-4.89671 12.78095,-4.89671 17.67767,0 z"
       id="rect4138-8-8" />
    <path
       inkscape:connector-curvature="0"
       style="fill:#000000;fill-opacity:1"
       d="m 818.09776,634.71817 14.14214,14.14214 c 3.91737,3.91737 3.91737,10.22476 0,14.14213 l -14.14214,14.14214 c -3.91737,3.91737 -10.22477,3.91737 -14.14214,0 l -14.14213,-14.14213 c -3.91738,-3.91737 -3.91738,-10.22477 0,-14.14214 l 14.14213,-14.14214 c 3.91738,-3.91737 10.22477,-3.91737 14.14214,0 z"
       id="rect4140-3-2" />
    <path
       inkscape:connector-curvature="0"
       style="fill:#000000"
       d="m 862.29193,671.84128 17.67767,17.67767 c 4.89672,4.89671 4.89672,12.78095 0,17.67767 l -17.67767,17.67767 c -4.89671,4.89672 -12.78095,4.89672 -17.67767,0 l -17.67767,-17.67767 c -4.89671,-4.89671 -4.89671,-12.78095 0,-17.67767 l 17.67767,-17.67767 c 4.89672,-4.89672 12.78096,-4.89672 17.67767,0 z"
       id="rect4138-8-4-2" />
    <path
       inkscape:connector-curvature="0"
       style="fill:#ffffff"
       d="m 860.52417,677.14458 14.14213,14.14214 c 3.91737,3.91737 3.91737,10.22476 0,14.14213 l -14.14214,14.14214 c -3.91737,3.91737 -10.22476,3.91737 -14.14213,0 l -14.14214,-14.14214 c -3.91737,-3.91737 -3.91737,-10.22476 0,-14.14213 l 14.14214,-14.14214 c 3.91737,-3.91737 10.22477,-3.91737 14.14214,0 z"
       id="rect4140-3-4-1" />
    <path
       id="path3575"
       style="font-style:normal;font-variant:normal;font-weight:normal;font-stretch:normal;font-size:91.52845001px;line-height:125%;font-family:'Standard Symbols L';-inkscape-font-specification:'Standard Symbols L';text-align:end;letter-spacing:0px;word-spacing:0px;writing-mode:lr-tb;text-anchor:end;fill:#000000;fill-opacity:1;stroke:none;stroke-width:1px;stroke-linecap:butt;stroke-linejoin:miter;stroke-opacity:1"
       d="m 183.1015,522.14597 0,-17.92135 -14.74824,0 0,-7.41881 23.68656,0 0,28.64734 q -5.22892,3.7094 -11.53044,5.63114 -6.30152,1.87705 -13.45218,1.87705 -15.64207,0 -24.49101,-9.11709 -8.80425,-9.16178 -8.80425,-25.47423 0,-16.35713 8.80425,-25.47422 8.84894,-9.16179 24.49101,-9.16179 6.52498,0 12.37958,1.6089 5.8993,1.6089 10.86007,4.73731 l 0,9.6087 q -5.00546,-4.2457 -10.63661,-6.3909 -5.63114,-2.1452 -11.84328,-2.1452 -12.2455,0 -18.41295,6.83782 -6.12275,6.83782 -6.12275,20.37938 0,13.49687 6.12275,20.33469 6.16745,6.83782 18.41295,6.83782 4.782,0 8.5361,-0.80445 3.7541,-0.84914 6.74844,-2.59211 z"
       inkscape:connector-curvature="0" />
    <path
       id="path3577"
       style="font-style:normal;font-variant:normal;font-weight:normal;font-stretch:normal;font-size:91.52845001px;line-height:125%;font-family:'Standard Symbols L';-inkscape-font-specification:'Standard Symbols L';text-align:end;letter-spacing:0px;word-spacing:0px;writing-mode:lr-tb;text-anchor:end;fill:#000000;fill-opacity:1;stroke:none;stroke-width:1px;stroke-linecap:butt;stroke-linejoin:miter;stroke-opacity:1"
       d="m 240.21739,500.38115 q 2.90496,0.98321 5.63115,4.20101 2.77088,3.21779 5.54176,8.84894 l 9.16178,18.23418 -9.69808,0 -8.5361,-17.11689 q -3.30718,-6.70374 -6.4356,-8.89363 -3.08372,-2.18989 -8.44671,-2.18989 l -9.83216,0 0,28.20041 -9.02771,0 0,-66.72459 20.37938,0 q 11.44106,0 17.0722,4.782 5.63115,4.782 5.63115,14.43539 0,6.30152 -2.94965,10.45785 -2.90496,4.15632 -8.49141,5.76522 z m -22.61396,-28.02165 0,23.68656 11.35167,0 q 6.52498,0 9.83216,-2.99434 3.35187,-3.03903 3.35187,-8.89364 0,-5.8546 -3.35187,-8.80425 -3.30718,-2.99433 -9.83216,-2.99433 l -11.35167,0 z"
       inkscape:connector-curvature="0" />
    <path
       id="path3579"
       style="font-style:normal;font-variant:normal;font-weight:normal;font-stretch:normal;font-size:91.52845001px;line-height:125%;font-family:'Standard Symbols L';-inkscape-font-specification:'Standard Symbols L';text-align:end;letter-spacing:0px;word-spacing:0px;writing-mode:lr-tb;text-anchor:end;fill:#000000;fill-opacity:1;stroke:none;stroke-width:1px;stroke-linecap:butt;stroke-linejoin:miter;stroke-opacity:1"
       d="m 290.76363,473.83432 -12.24551,33.20588 24.53571,0 -12.2902,-33.20588 z m -5.09485,-8.89363 10.23439,0 25.42953,66.72459 -9.38524,0 -6.07806,-17.11689 -30.07747,0 -6.07806,17.11689 -9.51931,0 25.47422,-66.72459 z"
       inkscape:connector-curvature="0" />
    <path
       id="path3581"
       style="font-style:normal;font-variant:normal;font-weight:normal;font-stretch:normal;font-size:91.52845001px;line-height:125%;font-family:'Standard Symbols L';-inkscape-font-specification:'Standard Symbols L';text-align:end;letter-spacing:0px;word-spacing:0px;writing-mode:lr-tb;text-anchor:end;fill:#000000;fill-opacity:1;stroke:none;stroke-width:1px;stroke-linecap:butt;stroke-linejoin:miter;stroke-opacity:1"
       d="m 331.03078,464.94069 12.15612,0 29.58585,55.81984 0,-55.81984 8.75956,0 0,66.72459 -12.15612,0 -29.58586,-55.81984 0,55.81984 -8.75955,0 0,-66.72459 z"
       inkscape:connector-curvature="0" />
    <path
       id="path3583"
       style="font-style:normal;font-variant:normal;font-weight:normal;font-stretch:normal;font-size:91.52845001px;line-height:125%;font-family:'Standard Symbols L';-inkscape-font-specification:'Standard Symbols L';text-align:end;letter-spacing:0px;word-spacing:0px;writing-mode:lr-tb;text-anchor:end;fill:#000000;fill-opacity:1;stroke:none;stroke-width:1px;stroke-linecap:butt;stroke-linejoin:miter;stroke-opacity:1"
       d="m 421.79946,473.83432 -12.24551,33.20588 24.5357,0 -12.29019,-33.20588 z m -5.09485,-8.89363 10.23438,0 25.42954,66.72459 -9.38524,0 -6.07806,-17.11689 -30.07747,0 -6.07806,17.11689 -9.51932,0 25.47423,-66.72459 z"
       inkscape:connector-curvature="0" />
    <path
       id="path3585"
       style="font-style:normal;font-variant:normal;font-weight:normal;font-stretch:normal;font-size:91.52845001px;line-height:125%;font-family:'Standard Symbols L';-inkscape-font-specification:'Standard Symbols L';text-align:end;letter-spacing:0px;word-spacing:0px;writing-mode:lr-tb;text-anchor:end;fill:#000000;fill-opacity:1;stroke:none;stroke-width:1px;stroke-linecap:butt;stroke-linejoin:miter;stroke-opacity:1"
       d="m 471.09431,472.3595 0,51.88697 10.90476,0 q 13.80971,0 20.20061,-6.25682 6.4356,-6.25683 6.4356,-19.7537 0,-13.40749 -6.4356,-19.61963 -6.3909,-6.25682 -20.20061,-6.25682 l -10.90476,0 z m -9.02771,-7.41881 18.54703,0 q 19.39616,0 28.46856,8.08918 9.0724,8.04449 9.0724,25.20608 0,17.25096 -9.11709,25.34015 -9.11709,8.08918 -28.42387,8.08918 l -18.54703,0 0,-66.72459 z"
       inkscape:connector-curvature="0" />
    <path
       id="path3587"
       style="font-style:normal;font-variant:normal;font-weight:normal;font-stretch:normal;font-size:91.52845001px;line-height:125%;font-family:'Standard Symbols L';-inkscape-font-specification:'Standard Symbols L';text-align:end;letter-spacing:0px;word-spacing:0px;writing-mode:lr-tb;text-anchor:end;fill:#000000;fill-opacity:1;stroke:none;stroke-width:1px;stroke-linecap:butt;stroke-linejoin:miter;stroke-opacity:1"
       d="m 553.19286,473.83432 -12.24551,33.20588 24.53571,0 -12.2902,-33.20588 z m -5.09485,-8.89363 10.23439,0 25.42953,66.72459 -9.38524,0 -6.07806,-17.11689 -30.07747,0 -6.07806,17.11689 -9.51931,0 25.47422,-66.72459 z"
       inkscape:connector-curvature="0" />
    <path
       id="path3566"
       style="font-style:normal;font-variant:normal;font-weight:normal;font-stretch:normal;font-size:166.92628479px;line-height:125%;font-family:'Standard Symbols L';-inkscape-font-specification:'Standard Symbols L';letter-spacing:0px;word-spacing:0px;fill:#000000;fill-opacity:1;stroke:none;stroke-width:1px;stroke-linecap:butt;stroke-linejoin:miter;stroke-opacity:1"
       d="m 133.76192,561.89224 16.46441,0 0,49.88227 59.82612,0 0,-49.88227 16.46441,0 0,121.68991 -16.46441,0 0,-57.95146 -59.82612,0 0,57.95146 -16.46441,0 0,-121.68991 z"
       inkscape:connector-curvature="0" />
    <path
       id="path3568"
       style="font-style:normal;font-variant:normal;font-weight:normal;font-stretch:normal;font-size:166.92628479px;line-height:125%;font-family:'Standard Symbols L';-inkscape-font-specification:'Standard Symbols L';letter-spacing:0px;word-spacing:0px;fill:#000000;fill-opacity:1;stroke:none;stroke-width:1px;stroke-linecap:butt;stroke-linejoin:miter;stroke-opacity:1"
       d="m 299.95465,578.11213 -22.33291,60.55968 44.74733,0 -22.41442,-60.55968 z m -9.2918,-16.21989 18.6651,0 46.37747,121.68991 -17.11647,0 -11.08494,-31.21717 -54.8542,0 -11.08495,31.21717 -17.36098,0 46.45897,-121.68991 z"
       inkscape:connector-curvature="0" />
    <path
       id="path3570"
       style="font-style:normal;font-variant:normal;font-weight:normal;font-stretch:normal;font-size:166.92628479px;line-height:125%;font-family:'Standard Symbols L';-inkscape-font-specification:'Standard Symbols L';letter-spacing:0px;word-spacing:0px;fill:#000000;fill-opacity:1;stroke:none;stroke-width:1px;stroke-linecap:butt;stroke-linejoin:miter;stroke-opacity:1"
       d="m 461.58298,571.26554 0,17.36099 q -8.31371,-7.74317 -17.76852,-11.57399 -9.3733,-3.83083 -19.96921,-3.83083 -20.86579,0 -31.95073,12.79659 -11.08495,12.71509 -11.08495,36.84116 0,24.04455 11.08495,36.84115 11.08494,12.71509 31.95073,12.71509 10.59591,0 19.96921,-3.83083 9.45481,-3.83083 17.76852,-11.57399 l 0,17.19797 q -8.63974,5.8685 -18.33907,8.80275 -9.61782,2.93426 -20.37674,2.93426 -27.63087,0 -43.52473,-16.87195 -15.89386,-16.95345 -15.89386,-46.21445 0,-29.34251 15.89386,-46.21446 15.89386,-16.95345 43.52473,-16.95345 10.92193,0 20.53975,2.93425 9.69933,2.85275 18.17606,8.63974 z"
       inkscape:connector-curvature="0" />
    <path
       id="path3572"
       style="font-style:normal;font-variant:normal;font-weight:normal;font-stretch:normal;font-size:166.92628479px;line-height:125%;font-family:'Standard Symbols L';-inkscape-font-specification:'Standard Symbols L';letter-spacing:0px;word-spacing:0px;fill:#000000;fill-opacity:1;stroke:none;stroke-width:1px;stroke-linecap:butt;stroke-linejoin:miter;stroke-opacity:1"
       d="m 487.17617,561.89224 16.46441,0 0,51.4309 54.60967,-51.4309 21.19181,0 -60.39666,56.72885 64.71653,64.96106 -21.68085,0 -58.4405,-58.60351 0,58.60351 -16.46441,0 0,-121.68991 z"
       inkscape:connector-curvature="0" />
    <path
       id="path3559"
       style="font-style:normal;font-variant:normal;font-weight:normal;font-stretch:normal;font-size:medium;line-height:125%;font-family:'Standard Symbols L';-inkscape-font-specification:'Standard Symbols L';letter-spacing:0px;word-spacing:0px;fill:#000000;fill-opacity:1;stroke:none;stroke-width:1px;stroke-linecap:butt;stroke-linejoin:miter;stroke-opacity:1"
       d="m 133.76192,712.67603 24.9246,0 0,163.24376 89.70387,0 0,20.97615 -114.62847,0 0,-184.21991 z"
       inkscape:connector-curvature="0" />
    <path
       id="path3561"
       style="font-style:normal;font-variant:normal;font-weight:normal;font-stretch:normal;font-size:medium;line-height:125%;font-family:'Standard Symbols L';-inkscape-font-specification:'Standard Symbols L';letter-spacing:0px;word-spacing:0px;fill:#000000;fill-opacity:1;stroke:none;stroke-width:1px;stroke-linecap:butt;stroke-linejoin:miter;stroke-opacity:1"
       d="m 341.91932,737.23046 -33.80861,91.67809 67.74061,0 -33.932,-91.67809 z m -14.06636,-24.55443 28.25611,0 70.20839,184.21991 -25.91171,0 -16.78092,-47.25803 -83.04085,0 -16.78092,47.25803 -26.28188,0 70.33178,-184.21991 z"
       inkscape:connector-curvature="0" />
    <path
       id="path3563"
       style="font-style:normal;font-variant:normal;font-weight:normal;font-stretch:normal;font-size:medium;line-height:125%;font-family:'Standard Symbols L';-inkscape-font-specification:'Standard Symbols L';letter-spacing:0px;word-spacing:0px;fill:#000000;fill-opacity:1;stroke:none;stroke-width:1px;stroke-linecap:butt;stroke-linejoin:miter;stroke-opacity:1"
       d="m 478.01748,808.91952 0,67.49383 39.97807,0 q 20.11242,0 29.73677,-8.26707 9.74773,-8.39046 9.74773,-25.54154 0,-17.27448 -9.74773,-25.41816 -9.62435,-8.26706 -29.73677,-8.26706 l -39.97807,0 z m 0,-75.7609 0,55.52509 36.89334,0 q 18.26158,0 27.1456,-6.7864 9.0074,-6.90979 9.0074,-20.97615 0,-13.94297 -9.0074,-20.85276 -8.88402,-6.90978 -27.1456,-6.90978 l -36.89334,0 z m -24.92459,-20.48259 63.66877,0 q 28.50287,0 43.92651,11.84535 15.42364,11.84535 15.42364,33.68522 0,16.90431 -7.89691,26.89882 -7.8969,9.99452 -23.19714,12.4623 18.38497,3.94845 28.50288,16.53414 10.24129,12.4623 10.24129,31.21744 0,24.67781 -16.78092,38.12722 -16.78091,13.44942 -47.75157,13.44942 l -66.13655,0 0,-184.21991 z"
       inkscape:connector-curvature="0" />
  </g>
</svg>
