<?xml version="1.0" encoding="UTF-8" standalone="no"?>
<!-- Created with Inkscape (http://www.inkscape.org/) -->

<svg
   xmlns:dc="http://purl.org/dc/elements/1.1/"
   xmlns:cc="http://creativecommons.org/ns#"
   xmlns:rdf="http://www.w3.org/1999/02/22-rdf-syntax-ns#"
   xmlns:svg="http://www.w3.org/2000/svg"
   xmlns="http://www.w3.org/2000/svg"
   xmlns:sodipodi="http://sodipodi.sourceforge.net/DTD/sodipodi-0.dtd"
   xmlns:inkscape="http://www.inkscape.org/namespaces/inkscape"
   sodipodi:docname="hacklab-granada-BN.svg"
   inkscape:version="0.91 r13725"
   version="1.1"
   id="svg2"
   viewBox="0 0 1052.3622 744.09448"
   height="210mm"
   width="297mm">
  <defs
     id="defs4" />
  <sodipodi:namedview
     inkscape:guide-bbox="true"
     showguides="true"
     inkscape:window-maximized="1"
     inkscape:window-y="27"
     inkscape:window-x="0"
     inkscape:window-height="704"
     inkscape:window-width="1366"
     inkscape:snap-others="false"
     showgrid="false"
     inkscape:current-layer="layer1"
     inkscape:document-units="px"
     inkscape:cy="275.15999"
     inkscape:cx="505.68404"
     inkscape:zoom="0.48272353"
     inkscape:pageshadow="2"
     inkscape:pageopacity="0.0"
     borderopacity="1.0"
     bordercolor="#666666"
     pagecolor="#ffffff"
     id="base"
     inkscape:snap-bbox="true"
     inkscape:bbox-paths="true"
     inkscape:snap-bbox-midpoints="true"
     inkscape:bbox-nodes="true"
     inkscape:snap-bbox-edge-midpoints="true"
     inkscape:snap-object-midpoints="true"
     inkscape:snap-nodes="false" />
  <metadata
     id="metadata7">
    <rdf:RDF>
      <cc:Work
         rdf:about="">
        <dc:format>image/svg+xml</dc:format>
        <dc:type
           rdf:resource="http://purl.org/dc/dcmitype/StillImage" />
        <dc:title></dc:title>
      </cc:Work>
    </rdf:RDF>
  </metadata>
  <g
     inkscape:label="Capa 1"
     inkscape:groupmode="layer"
     id="layer1"
     transform="translate(0,-308.26772)">
    <flowRoot
       xml:space="preserve"
       id="flowRoot3398"
       style="fill:black;stroke:none;stroke-opacity:1;stroke-width:1px;stroke-linejoin:miter;stroke-linecap:butt;fill-opacity:1;font-family:Sans;font-style:normal;font-weight:bold;font-size:40px;line-height:125%;letter-spacing:0px;word-spacing:0px;-inkscape-font-specification:Sans Bold"><flowRegion
         id="flowRegion3400"><rect
           id="rect3402"
           width="700.19373"
           height="476.4632"
           x="31.073687"
           y="62.544945" /></flowRegion><flowPara
         id="flowPara3404"></flowPara></flowRoot>    <rect
       rx="75"
       style="fill:#000000"
       ry="75"
       y="548.35779"
       x="618.60028"
       height="300"
       width="300"
       id="rect6076" />
    <rect
       style="fill:#000000;fill-opacity:1"
       id="rect4197"
       width="25"
       height="50"
       x="756.46747"
       y="846.89587" />
    <path
       sodipodi:type="star"
       style="fill:#000000;fill-opacity:1"
       id="path6078"
       sodipodi:sides="6"
       sodipodi:cx="768.60028"
       sodipodi:cy="550.33654"
       sodipodi:r1="86.602539"
       sodipodi:r2="43.301273"
       sodipodi:arg1="1.5707963"
       sodipodi:arg2="2.0943951"
       inkscape:flatsided="false"
       inkscape:rounded="0"
       inkscape:randomized="0"
       d="m 768.60028,636.93909 -21.65064,-49.10254 -53.34936,5.80127 31.69873,-43.30127 -31.69873,-43.30127 53.34936,5.80127 21.65064,-49.10254 21.65064,49.10254 53.34936,-5.80127 -31.69873,43.30127 31.69873,43.30127 -53.34936,-5.80127 z" />
    <path
       d="m 768.60028,626.98904 -19.16313,-43.46098 -47.21988,5.13474 28.05676,-38.32625 -28.05676,-38.32625 47.21988,5.13474 19.16313,-43.46099 19.16313,43.46099 47.21988,-5.13474 -28.05676,38.32625 28.05676,38.32624 -47.21988,-5.13473 z"
       inkscape:randomized="0"
       inkscape:rounded="0"
       inkscape:flatsided="false"
       sodipodi:arg2="2.0943951"
       sodipodi:arg1="1.5707963"
       sodipodi:r2="38.326252"
       sodipodi:r1="76.652496"
       sodipodi:cy="550.33654"
       sodipodi:cx="768.60028"
       sodipodi:sides="6"
       id="path4416"
       style="fill:#ffffff;fill-opacity:1"
       sodipodi:type="star" />
    <rect
       style="fill:#ffffff;fill-opacity:1"
       id="rect4197-3"
       width="15"
       height="64.827568"
       x="761.46747"
       y="827.0683" />
    <rect
       rx="72.5"
       id="rect3336"
       width="290"
       height="290"
       x="623.60028"
       y="553.35779"
       ry="72.5"
       style="fill:#ffffff" />
    <rect
       id="rect4138"
       width="50"
       height="50"
       x="952.29596"
       y="-14.668973"
       ry="12.5"
       style="fill:#000000"
       transform="matrix(0.70710678,0.70710678,-0.70710678,0.70710678,0,0)"
       rx="12.5" />
    <rect
       style="fill:#000000;fill-opacity:1"
       id="rect4140"
       width="40"
       height="40"
       x="957.29596"
       y="-9.6689739"
       ry="10"
       transform="matrix(0.70710678,0.70710678,-0.70710678,0.70710678,0,0)"
       rx="10" />
    <rect
       id="rect4138-8"
       width="50"
       height="50"
       x="1012.296"
       y="-14.668973"
       ry="12.5"
       style="fill:#000000"
       transform="matrix(0.70710678,0.70710678,-0.70710678,0.70710678,0,0)"
       rx="12.5" />
    <rect
       style="fill:#000000;fill-opacity:1"
       id="rect4140-3"
       width="40"
       height="40"
       x="1017.296"
       y="-9.6689739"
       ry="10"
       transform="matrix(0.70710678,0.70710678,-0.70710678,0.70710678,0,0)"
       rx="10" />
    <rect
       id="rect4138-8-4"
       width="50"
       height="50"
       x="1072.296"
       y="-14.668973"
       ry="12.5"
       style="fill:#000000"
       transform="matrix(0.70710678,0.70710678,-0.70710678,0.70710678,0,0)"
       rx="12.5" />
    <rect
       style="fill:#000000;fill-opacity:1"
       id="rect4140-3-4"
       width="40"
       height="40"
       x="1077.296"
       y="-9.6689739"
       ry="10"
       transform="matrix(0.70710678,0.70710678,-0.70710678,0.70710678,0,0)"
       rx="10" />
    <rect
       id="rect4138-0"
       width="50"
       height="50"
       x="952.29596"
       y="-74.668983"
       ry="12.5"
       style="fill:#000000"
       transform="matrix(0.70710678,0.70710678,-0.70710678,0.70710678,0,0)"
       rx="12.5" />
    <rect
       style="fill:#ffffff"
       id="rect4140-7"
       width="40"
       height="40"
       x="957.29596"
       y="-69.668983"
       ry="10"
       transform="matrix(0.70710678,0.70710678,-0.70710678,0.70710678,0,0)"
       rx="10" />
    <rect
       id="rect4138-8-9"
       width="50"
       height="50"
       x="1012.296"
       y="-74.668983"
       ry="12.5"
       style="fill:#000000"
       transform="matrix(0.70710678,0.70710678,-0.70710678,0.70710678,0,0)"
       rx="12.5" />
    <rect
       style="fill:#ffffff"
       id="rect4140-3-3"
       width="40"
       height="40"
       x="1017.296"
       y="-69.668983"
       ry="10"
       transform="matrix(0.70710678,0.70710678,-0.70710678,0.70710678,0,0)"
       rx="10" />
    <rect
       id="rect4138-8-4-6"
       width="50"
       height="50"
       x="1072.296"
       y="-74.668983"
       ry="12.5"
       style="fill:#000000"
       transform="matrix(0.70710678,0.70710678,-0.70710678,0.70710678,0,0)"
       rx="12.5" />
    <rect
       style="fill:#000000;fill-opacity:1"
       id="rect4140-3-4-9"
       width="40"
       height="40"
       x="1077.296"
       y="-69.668983"
       ry="10"
       transform="matrix(0.70710678,0.70710678,-0.70710678,0.70710678,0,0)"
       rx="10" />
    <rect
       id="rect4138-7"
       width="50"
       height="50"
       x="952.29596"
       y="-134.66895"
       ry="12.5"
       style="fill:#000000"
       transform="matrix(0.70710678,0.70710678,-0.70710678,0.70710678,0,0)"
       rx="12.5" />
    <rect
       style="fill:#ffffff"
       id="rect4140-8"
       width="40"
       height="40"
       x="957.29596"
       y="-129.66895"
       ry="10"
       transform="matrix(0.70710678,0.70710678,-0.70710678,0.70710678,0,0)"
       rx="10" />
    <rect
       id="rect4138-8-8"
       width="50"
       height="50"
       x="1012.296"
       y="-134.66895"
       ry="12.5"
       style="fill:#000000"
       transform="matrix(0.70710678,0.70710678,-0.70710678,0.70710678,0,0)"
       rx="12.5" />
    <rect
       style="fill:#000000;fill-opacity:1"
       id="rect4140-3-2"
       width="40"
       height="40"
       x="1017.296"
       y="-129.66895"
       ry="10"
       transform="matrix(0.70710678,0.70710678,-0.70710678,0.70710678,0,0)"
       rx="10" />
    <rect
       id="rect4138-8-4-2"
       width="50"
       height="50"
       x="1072.296"
       y="-134.66895"
       ry="12.5"
       style="fill:#000000"
       transform="matrix(0.70710678,0.70710678,-0.70710678,0.70710678,0,0)"
       rx="12.5" />
    <rect
       style="fill:#ffffff"
       id="rect4140-3-4-1"
       width="40"
       height="40"
       x="1077.296"
       y="-129.66895"
       ry="10"
       transform="matrix(0.70710678,0.70710678,-0.70710678,0.70710678,0,0)"
       rx="10" />
    <text
       xml:space="preserve"
       style="font-style:normal;font-variant:normal;font-weight:normal;font-stretch:normal;font-size:54.66282654px;line-height:125%;font-family:'Latin Modern Mono Light Cond';-inkscape-font-specification:'Latin Modern Mono Light Cond, Normal';text-align:start;letter-spacing:0px;word-spacing:0px;writing-mode:lr-tb;text-anchor:start;fill:#000000;fill-opacity:1;stroke:none;stroke-width:1px;stroke-linecap:butt;stroke-linejoin:miter;stroke-opacity:1"
       x="584.47699"
       y="531.66528"
       id="text4199"
       sodipodi:linespacing="125%"><tspan
         sodipodi:role="line"
         x="584.47699"
         y="531.66528"
         style="font-style:normal;font-variant:normal;font-weight:normal;font-stretch:normal;font-size:91.52845001px;font-family:'Standard Symbols L';-inkscape-font-specification:'Standard Symbols L';text-align:end;text-anchor:end;fill:#000000"
         id="tspan3391">GRANADA</tspan></text>
    <text
       xml:space="preserve"
       style="font-style:normal;font-variant:normal;font-weight:normal;font-stretch:normal;font-size:37.09473038px;line-height:125%;font-family:'Standard Symbols L';-inkscape-font-specification:'Standard Symbols L';letter-spacing:0px;word-spacing:0px;fill:#000000;fill-opacity:1;stroke:none;stroke-width:1px;stroke-linecap:butt;stroke-linejoin:miter;stroke-opacity:1"
       x="117.37902"
       y="683.58215"
       id="text3411"
       sodipodi:linespacing="125%"><tspan
         sodipodi:role="line"
         id="tspan3413"
         x="117.37902"
         y="683.58215"
         style="font-size:166.92628479px">HACK</tspan></text>
    <text
       xml:space="preserve"
       style="font-style:normal;font-weight:bold;font-size:252.70085144px;line-height:125%;font-family:Sans;-inkscape-font-specification:'Sans Bold';letter-spacing:0px;word-spacing:0px;fill:#000000;fill-opacity:1;stroke:none;stroke-width:1px;stroke-linecap:butt;stroke-linejoin:miter;stroke-opacity:1"
       x="108.96072"
       y="896.89594"
       id="text3419"
       sodipodi:linespacing="125%"><tspan
         sodipodi:role="line"
         id="tspan3421"
         x="108.96072"
         y="896.89594"
         style="font-style:normal;font-variant:normal;font-weight:normal;font-stretch:normal;font-family:'Standard Symbols L';-inkscape-font-specification:'Standard Symbols L'">LAB</tspan></text>
  </g>
</svg>
